pose18
version=1
nRows=4
nColumns=213
inDegrees=yes
endheader
time	platform_rx	platform_ry	platform_rz	platform_ty	pelvis_tilt	pelvis_list	pelvis_rotation	pelvis_tx	pelvis_ty	pelvis_tz	hip_flexion_r	hip_adduction_r	hip_rotation_r	knee_angle_r	knee_angle_r_beta	ankle_angle_r	subtalar_angle_r	mtp_angle_r	hip_flexion_l	hip_adduction_l	hip_rotation_l	knee_angle_l	knee_angle_l_beta	ankle_angle_l	subtalar_angle_l	mtp_angle_l	lumbar_extension	lumbar_bending	lumbar_rotation	arm_flex_r	arm_add_r	arm_rot_r	elbow_flex_r	pro_sup_r	wrist_flex_r	wrist_dev_r	arm_flex_l	arm_add_l	arm_rot_l	elbow_flex_l	pro_sup_l	wrist_flex_l	wrist_dev_l	platform_rx_u	platform_ry_u	platform_rz_u	platform_ty_u	pelvis_tilt_u	pelvis_list_u	pelvis_rotation_u	pelvis_tx_u	pelvis_ty_u	pelvis_tz_u	hip_flexion_r_u	hip_adduction_r_u	hip_rotation_r_u	knee_angle_r_u	knee_angle_r_beta_u	ankle_angle_r_u	subtalar_angle_r_u	mtp_angle_r_u	hip_flexion_l_u	hip_adduction_l_u	hip_rotation_l_u	knee_angle_l_u	knee_angle_l_beta_u	ankle_angle_l_u	subtalar_angle_l_u	mtp_angle_l_u	lumbar_extension_u	lumbar_bending_u	lumbar_rotation_u	arm_flex_r_u	arm_add_r_u	arm_rot_r_u	elbow_flex_r_u	pro_sup_r_u	wrist_flex_r_u	wrist_dev_r_u	arm_flex_l_u	arm_add_l_u	arm_rot_l_u	elbow_flex_l_u	pro_sup_l_u	wrist_flex_l_u	wrist_dev_l_u	addbrev_r.activation	addlong_r.activation	addlong_r.fiber_length	addmagDist_r.activation	addmagIsch_r.activation	addmagIsch_r.fiber_length	addmagMid_r.activation	addmagProx_r.activation	bflh_r.activation	bflh_r.fiber_length	bfsh_r.activation	edl_r.activation	edl_r.fiber_length	ehl_r.activation	ehl_r.fiber_length	fdl_r.activation	fdl_r.fiber_length	fhl_r.activation	fhl_r.fiber_length	gaslat_r.activation	gaslat_r.fiber_length	gasmed_r.activation	gasmed_r.fiber_length	glmax1_r.activation	glmax2_r.activation	glmax3_r.activation	glmed1_r.activation	glmed2_r.activation	glmed3_r.activation	glmin1_r.activation	glmin2_r.activation	glmin3_r.activation	glmin3_r.fiber_length	grac_r.activation	iliacus_r.activation	perbrev_r.activation	perbrev_r.fiber_length	perlong_r.activation	perlong_r.fiber_length	piri_r.activation	piri_r.fiber_length	psoas_r.activation	recfem_r.activation	recfem_r.fiber_length	sart_r.activation	semimem_r.activation	semimem_r.fiber_length	semiten_r.activation	semiten_r.fiber_length	soleus_r.activation	soleus_r.fiber_length	tfl_r.activation	tfl_r.fiber_length	tibant_r.activation	tibant_r.fiber_length	tibpost_r.activation	tibpost_r.fiber_length	vasint_r.activation	vasint_r.fiber_length	vaslat_r.activation	vaslat_r.fiber_length	vasmed_r.activation	vasmed_r.fiber_length	addbrev_l.activation	addlong_l.activation	addlong_l.fiber_length	addmagDist_l.activation	addmagIsch_l.activation	addmagIsch_l.fiber_length	addmagMid_l.activation	addmagProx_l.activation	bflh_l.activation	bflh_l.fiber_length	bfsh_l.activation	edl_l.activation	edl_l.fiber_length	ehl_l.activation	ehl_l.fiber_length	fdl_l.activation	fdl_l.fiber_length	fhl_l.activation	fhl_l.fiber_length	gaslat_l.activation	gaslat_l.fiber_length	gasmed_l.activation	gasmed_l.fiber_length	glmax1_l.activation	glmax2_l.activation	glmax3_l.activation	glmed1_l.activation	glmed2_l.activation	glmed3_l.activation	glmin1_l.activation	glmin2_l.activation	glmin3_l.activation	glmin3_l.fiber_length	grac_l.activation	iliacus_l.activation	perbrev_l.activation	perbrev_l.fiber_length	perlong_l.activation	perlong_l.fiber_length	piri_l.activation	piri_l.fiber_length	psoas_l.activation	recfem_l.activation	recfem_l.fiber_length	sart_l.activation	semimem_l.activation	semimem_l.fiber_length	semiten_l.activation	semiten_l.fiber_length	soleus_l.activation	soleus_l.fiber_length	tfl_l.activation	tfl_l.fiber_length	tibant_l.activation	tibant_l.fiber_length	tibpost_l.activation	tibpost_l.fiber_length	vasint_l.activation	vasint_l.fiber_length	vaslat_l.activation	vaslat_l.fiber_length	vasmed_l.activation	vasmed_l.fiber_length
      0.02472533	     20.00000000	      0.00000000	     -0.00000000	      0.25000000	    -18.02789590	     -0.01056206	     -0.01211711	     -0.03432299	      0.63031360	      0.00005209	     82.99759575	    -18.53433731	     -3.41524871	     90.67566849	     90.67566849	     -6.53163453	     -3.08061470	     -0.00000000	     83.00919412	    -18.60575725	     -3.26312184	     90.67096943	     90.67096943	     -6.02911377	     -0.00000000	     -0.00000000	    -10.76441078	      0.00637122	      0.01357512	     92.27494065	     -0.10489692	     89.84109293	      0.43521615	      0.12533390	     -0.00000000	     -0.00000000	     92.27813908	     -0.10755636	     89.76367127	      0.44068360	      0.19720958	     -0.00000000	     -0.00000000	      0.00000000	      0.00000000	      0.00000000	     -0.00000000	    693.78440719	      0.06777872	      0.30034084	      0.11638450	      1.13097452	      0.00038228	   -857.78618538	    -35.59250814	     -8.99539437	   -254.06236329	   -254.06236329	  -1793.34963574	     -1.34190551	     -0.00000000	   -857.68989582	    -36.92540854	    -12.93360818	   -255.88619826	   -255.88619826	  -1812.79094645	     -0.00000000	      0.00000000	   -856.64862572	     -0.32665513	     -0.20912295	    181.61131192	     -8.91303676	     -0.00000000	     24.90531670	      1.52820748	     -0.00000000	      0.00000000	    181.70594264	     -9.07781595	     -6.50268207	     25.30958455	      8.15906869	     -0.00000000	      0.00000000	      0.01000000	      0.01000000	      0.09791472	      0.01000000	      0.01000000	      0.21172331	      0.01000000	      0.01000000	      0.01000000	      0.11871438	      0.01000000	      0.01000000	      0.07167077	      0.01000000	      0.08167952	      0.01000000	      0.04593590	      0.01000000	      0.05281362	      0.01000000	      0.05000991	      0.01000000	      0.03907031	      0.01000000	      0.01000000	      0.01000000	      0.01000000	      0.01000000	      0.01000000	      0.01000000	      0.01000000	      0.01000000	      0.04342463	      0.01000000	      0.01000000	      0.01000000	      0.04683436	      0.01000000	      0.05257802	      0.01000000	      0.03064127	      0.01000000	      0.01000000	      0.05778051	      0.01000000	      0.01000000	      0.07580034	      0.01000000	      0.22599545	      0.01000000	      0.04683220	      0.01000000	      0.02401570	      0.01000000	      0.07079772	      0.01000000	      0.03957395	      0.01000000	      0.13471628	      0.01000000	      0.13122316	      0.01000000	      0.12904836	      0.01000000	      0.01000000	      0.09800119	      0.01000000	      0.01000000	      0.21172354	      0.01000000	      0.01000000	      0.01000000	      0.11873125	      0.01000000	      0.01000000	      0.07209549	      0.01000000	      0.08132167	      0.01000000	      0.04538310	      0.01000000	      0.05263219	      0.01000000	      0.05001212	      0.01000000	      0.03907463	      0.01000000	      0.01000000	      0.01000000	      0.01000000	      0.01000000	      0.01000000	      0.01000000	      0.01000000	      0.01000000	      0.04331295	      0.01000000	      0.01000000	      0.01000000	      0.04810387	      0.01000000	      0.05367693	      0.01000000	      0.03057263	      0.01000000	      0.01000000	      0.05776383	      0.01000000	      0.01000000	      0.07580989	      0.01000000	      0.22601838	      0.01000000	      0.04687893	      0.01000000	      0.02401563	      0.01000000	      0.06999429	      0.01000000	      0.03898128	      0.01000000	      0.13471499	      0.01000000	      0.13122198	      0.01000000	      0.12904727
      0.02514201	     20.00000000	      0.00000000	     -0.00000000	      0.25000000	    -17.73651507	     -0.01052668	     -0.01198439	     -0.03427447	      0.63078938	      0.00005223	     82.63675072	    -18.54925110	     -3.41931084	     90.56836572	     90.56836572	     -7.27727567	     -3.07920941	     -0.00000000	     82.64838141	    -18.62120536	     -3.26896577	     90.56289698	     90.56289698	     -6.78339130	     -0.00000000	     -0.00000000	    -11.12410074	      0.00622939	      0.01347918	     92.35119714	     -0.10864838	     89.84109293	      0.44569889	      0.12601861	     -0.00000000	     -0.00000000	     92.35443492	     -0.11137668	     89.76092682	      0.45133598	      0.20069215	     -0.00000000	     -0.00000000	      0.00000000	      0.00000000	      0.00000000	     -0.00000000	    704.77233919	      0.10342414	      0.33757228	      0.11647670	      1.15264002	      0.00027626	   -874.19279614	    -35.99032193	    -10.50639285	   -260.97918008	   -260.97918008	  -1785.56235129	      8.09492841	     -0.00000000	   -874.13562734	    -37.21869649	    -15.12328371	   -262.85048441	   -262.85048441	  -1807.57976053	     -0.00000000	      0.00000000	   -869.77168033	     -0.35534390	     -0.25260880	    184.40039179	     -9.09326018	     -0.00000000	     25.41005657	      1.75962689	     -0.00000000	      0.00000000	    184.49480884	     -9.25924591	     -6.67026650	     25.82036967	      8.55852655	     -0.00000000	      0.00000000	      0.01000000	      0.01000000	      0.09789310	      0.01000000	      0.01000000	      0.21143272	      0.01000000	      0.01000000	      0.01000000	      0.11854370	      0.01000000	      0.01000000	      0.07208607	      0.01000000	      0.08213532	      0.01000000	      0.04586467	      0.01000000	      0.05274452	      0.01000000	      0.04993574	      0.01000000	      0.03900829	      0.01000000	      0.01000000	      0.01000000	      0.01000000	      0.01000000	      0.01000000	      0.01000000	      0.01000000	      0.01000000	      0.04335505	      0.01000000	      0.01000000	      0.01000000	      0.04676367	      0.01000000	      0.05248340	      0.01000000	      0.03056183	      0.01000000	      0.01000000	      0.05798149	      0.01000000	      0.01000000	      0.07565584	      0.01000000	      0.22578822	      0.01000000	      0.04666495	      0.01000000	      0.02403688	      0.01000000	      0.07130208	      0.01000000	      0.03948581	      0.01000000	      0.13468341	      0.01000000	      0.13119242	      0.01000000	      0.12902039	      0.01000000	      0.01000000	      0.09798033	      0.01000000	      0.01000000	      0.21148044	      0.01000000	      0.01000000	      0.01000000	      0.11856111	      0.01000000	      0.01000000	      0.07251433	      0.01000000	      0.08177923	      0.01000000	      0.04531967	      0.01000000	      0.05256309	      0.01000000	      0.04993795	      0.01000000	      0.03901260	      0.01000000	      0.01000000	      0.01000000	      0.01000000	      0.01000000	      0.01000000	      0.01000000	      0.01000000	      0.01000000	      0.04324408	      0.01000000	      0.01000000	      0.01000000	      0.04802688	      0.01000000	      0.05357481	      0.01000000	      0.03049333	      0.01000000	      0.01000000	      0.05796429	      0.01000000	      0.01000000	      0.07566600	      0.01000000	      0.22581204	      0.01000000	      0.04670848	      0.01000000	      0.02402018	      0.01000000	      0.07050869	      0.01000000	      0.03891042	      0.01000000	      0.13468187	      0.01000000	      0.13119101	      0.01000000	      0.12901909
      0.02555869	     20.00000000	      0.00000000	     -0.00000000	      0.25000000	    -17.44057167	     -0.01047602	     -0.01183666	     -0.03422594	      0.63127418	      0.00005233	     82.26907447	    -18.56432730	     -3.42400820	     90.45816757	     90.45816757	     -8.01965346	     -3.07386054	     -0.00000000	     82.28072074	    -18.63677353	     -3.27572986	     90.45190990	     90.45190990	     -7.53548641	     -0.00000000	     -0.00000000	    -11.48923472	      0.00607520	      0.01336541	     92.42861068	     -0.11247510	     89.84109293	      0.45639249	      0.12680165	     -0.00000000	     -0.00000000	     92.43188778	     -0.11527285	     89.75811222	      0.46220186	      0.20434357	     -0.00000000	     -0.00000000	      0.00000000	      0.00000000	      0.00000000	     -0.00000000	    715.68190505	      0.13913885	      0.37049244	      0.11643611	      1.17429937	      0.00017853	   -890.57336907	    -36.36835534	    -12.04456190	   -267.96055472	   -267.96055472	  -1777.68591998	     17.58920005	     -0.00000000	   -890.55495013	    -37.50443355	    -17.34773882	   -269.87467736	   -269.87467736	  -1802.31442373	     -0.00000000	      0.00000000	   -882.77637388	     -0.38412534	     -0.29248604	    187.16450120	     -9.27438765	     -0.00000000	     25.91753134	      2.00046495	     -0.00000000	      0.00000000	    187.25872803	     -9.44168415	     -6.83958209	     26.33400903	      8.96940536	     -0.00000000	     -0.00000000	      0.01000000	      0.01000000	      0.09787271	      0.01000000	      0.01000000	      0.21119311	      0.01000000	      0.01000000	      0.01000000	      0.11836867	      0.01000000	      0.01000000	      0.07249772	      0.01000000	      0.08258712	      0.01000000	      0.04579351	      0.01000000	      0.05267542	      0.01000000	      0.04986161	      0.01000000	      0.03894630	      0.01000000	      0.01000000	      0.01000000	      0.01000000	      0.01000000	      0.01000000	      0.01000000	      0.01000000	      0.01000000	      0.04328402	      0.01000000	      0.01000000	      0.01000000	      0.04669444	      0.01000000	      0.05239110	      0.01000000	      0.03048061	      0.01000000	      0.01000000	      0.05818693	      0.01000000	      0.01000000	      0.07550798	      0.01000000	      0.22557635	      0.01000000	      0.04650873	      0.01000000	      0.02417550	      0.01000000	      0.07180149	      0.01000000	      0.03939825	      0.01000000	      0.13464954	      0.01000000	      0.13116079	      0.01000000	      0.12899155	      0.01000000	      0.01000000	      0.09796067	      0.01000000	      0.01000000	      0.21120008	      0.01000000	      0.01000000	      0.01000000	      0.11838661	      0.01000000	      0.01000000	      0.07293030	      0.01000000	      0.08223362	      0.01000000	      0.04525740	      0.01000000	      0.05249399	      0.01000000	      0.04986381	      0.01000000	      0.03895061	      0.01000000	      0.01000000	      0.01000000	      0.01000000	      0.01000000	      0.01000000	      0.01000000	      0.01000000	      0.01000000	      0.04317395	      0.01000000	      0.01000000	      0.01000000	      0.04794956	      0.01000000	      0.05347280	      0.01000000	      0.03041235	      0.01000000	      0.01000000	      0.05816920	      0.01000000	      0.01000000	      0.07551875	      0.01000000	      0.22560108	      0.01000000	      0.04654941	      0.01000000	      0.02410263	      0.01000000	      0.07101425	      0.01000000	      0.03884269	      0.01000000	      0.13464775	      0.01000000	      0.13115915	      0.01000000	      0.12899003
      0.02597538	     20.00000000	      0.00000000	     -0.00000000	      0.25000000	    -17.14010094	     -0.01041034	     -0.01167510	     -0.03417745	      0.63176799	      0.00005238	     81.89458106	    -18.57955820	     -3.42935194	     90.34504730	     90.34504730	     -8.75873236	     -3.06454261	     -0.00000000	     81.90622666	    -18.65245733	     -3.28342699	     90.33798336	     90.33798336	     -8.28537484	     -0.00000000	     -0.00000000	    -11.85976012	      0.00590908	      0.01323475	     92.50717013	     -0.11637744	     89.84109293	      0.46729802	      0.12768698	     -0.00000000	     -0.00000000	     92.51048647	     -0.11924522	     89.75522675	      0.47328227	      0.20816852	     -0.00000000	     -0.00000000	      0.00000000	      0.00000000	      0.00000000	     -0.00000000	    726.50211790	      0.17639725	      0.40548301	      0.11625949	      1.19592876	      0.00007658	   -906.91253181	    -36.73534954	    -13.60892412	   -275.00428343	   -275.00428343	  -1769.73008109	     27.14511310	     -0.00000000	   -906.93453886	    -37.77127790	    -19.60194515	   -276.95993242	   -276.95993242	  -1796.98726727	     -0.00000000	      0.00000000	   -895.64874675	     -0.41329058	     -0.33534004	    189.90017585	     -9.45618890	     -0.00000000	     26.42720092	      2.25050405	     -0.00000000	      0.00000000	    189.99432680	     -9.62503193	     -7.01035231	     26.85011557	      9.39143032	     -0.00000000	      0.00000000	      0.01000000	      0.01000000	      0.09785367	      0.01000000	      0.01000000	      0.21089752	      0.01000000	      0.01000000	      0.01000000	      0.11818922	      0.01000000	      0.01000000	      0.07290687	      0.01000000	      0.08303472	      0.01000000	      0.04572274	      0.01000000	      0.05260632	      0.01000000	      0.04978751	      0.01000000	      0.03888435	      0.01000000	      0.01000000	      0.01000000	      0.01000000	      0.01000000	      0.01000000	      0.01000000	      0.01000000	      0.01000000	      0.04321153	      0.01000000	      0.01000000	      0.01000000	      0.04662661	      0.01000000	      0.05230119	      0.01000000	      0.03039760	      0.01000000	      0.01000000	      0.05839685	      0.01000000	      0.01000000	      0.07535675	      0.01000000	      0.22535981	      0.01000000	      0.04636265	      0.01000000	      0.02444640	      0.01000000	      0.07229638	      0.01000000	      0.03931189	      0.01000000	      0.13461465	      0.01000000	      0.13112827	      0.01000000	      0.12896182	      0.01000000	      0.01000000	      0.09794229	      0.01000000	      0.01000000	      0.21094081	      0.01000000	      0.01000000	      0.01000000	      0.11820768	      0.01000000	      0.01000000	      0.07334380	      0.01000000	      0.08268468	      0.01000000	      0.04519611	      0.01000000	      0.05242490	      0.01000000	      0.04978972	      0.01000000	      0.03888865	      0.01000000	      0.01000000	      0.01000000	      0.01000000	      0.01000000	      0.01000000	      0.01000000	      0.01000000	      0.01000000	      0.04310253	      0.01000000	      0.01000000	      0.01000000	      0.04787192	      0.01000000	      0.05337098	      0.01000000	      0.03032967	      0.01000000	      0.01000000	      0.05837860	      0.01000000	      0.01000000	      0.07536815	      0.01000000	      0.22538545	      0.01000000	      0.04640070	      0.01000000	      0.02432851	      0.01000000	      0.07151514	      0.01000000	      0.03877776	      0.01000000	      0.13461260	      0.01000000	      0.13112639	      0.01000000	      0.12896008
